<?xml version="1.0" encoding="utf-8"?>
<!-- Generator: Adobe Illustrator 24.0.2, SVG Export Plug-In . SVG Version: 6.00 Build 0)  -->
<svg version="1.1" id="Layer_1" xmlns="http://www.w3.org/2000/svg" xmlns:xlink="http://www.w3.org/1999/xlink" x="0px" y="0px"
	 viewBox="0 0 1000 1000" style="enable-background:new 0 0 1000 1000;" xml:space="preserve">
<style type="text/css">
	.st0{fill:#63AEAA;}
	.st1{fill:#FFFAFA;}
	.st2{fill:#FAE847;}
	.st3{enable-background:new    ;}
</style>
<path id="Pampers_Heart_1_" class="st0" d="M465.3,299.1c7-1.4,13-50.5,90.1-149.3C642.2,45.3,752.3,12.9,847.2,57.1
	c71.6,34.3,145,94.1,131.5,323.7C965.1,610.4,614,958.5,583.7,961.9c-67,7.6-310.6-170.1-420.6-266.4S-53.5,380,86.5,232
	C251.9,57.2,465.3,299.1,465.3,299.1z"/>
<g id="Michelob_1_">
	<path id="M" class="st1" d="M223.8,362.9c-16.6,3-28.6,11.1-36.2,21.7c-10.5-7.6-24.6-11.6-41.2-9.1c-34.1,5-42.6,29.4-46.9,54
		c-4.3,24.6,24.2,124,29.2,139.8c0,0-0.4-1.2,4.2,11.7c4.3,13.2,21.1,8.2,29.4,6.3c8.4-1.7,6.3-5.8,3.2-17.1
		c-3.2-11.2-26.4-81.1-34.1-128s42.3-43.3,46.5-19.7c0.5,2.9,1.4,5.4,2.7,7.5c3.6,7.6,10.6,10,16.8,8.3c5.3-1,10-5.1,11.1-12
		c0.6-2.5,0.8-5.4,0.3-8.6c-3.4-23.7,42.8-42.9,50.4,4.1c7.6,47,7.6,120.5,8.1,132.2c0.6,11.7,0,16.3,8.4,15.3
		c8.4-1,25.9-1.5,25.9-15.3c0.2-12.1,0.2-12.8,0.2-12.8c-0.4-16.6-4.6-119.9-16.5-141.7C273.6,377.4,257.7,356.8,223.8,362.9z"/>
	<path id="I_1_" class="st1" d="M367.5,449.4c0,0,1.1,86.9,0.9,93.3c-0.4,6.5,2,13.4-12.9,10.2c-14.9-3.2-16.6-17.9-16.9-24.3
		c-0.2-6.5-1.5-79.8,0.2-83c1.7-3.2,5.3-9.9,19.4-10.8C367.5,433.4,367.5,449.4,367.5,449.4z"/>
	<g id="I_dot_2_">
		<path class="st2" d="M358.9,326.5c-17.4,18.9-16,23.6-16,23.6s-33.6-28.2-49.2,0.2c-15.5,28.6,26.8,58,41.3,68.4
			c14.5,10.4,23.3,13.3,30.8,6.6c7.6-6.7,10.3-9.3,10.3-9.3c14.5-16.8,27.3-38,27.9-65.7C404.7,322.7,376.4,307.6,358.9,326.5z
			 M349.8,372.2c0,0,5.2,2.6,6.8,7.4c1.6,4.7,1.2,14.5-6.1,2.6C347.6,375.5,349.8,372.2,349.8,372.2z M368.9,402.1
			c-9.3,13.2-13.5,19.9-26.6,9.7c-13-10.2-33.4-36.5-29.5-48.5c3.8-12,16.5-6.7,24.3-1.6c2.6,1.9,3.4,4.2,3.4,4.2
			s-4.3,10.8,1.7,23.8c6.1,13,14.8,10.6,20.7,1.5c6-9.1-0.5-22.2-5.3-26.3c-4.8-4.2-6.3-5.3-6.3-5.3s1.5-6.6,5.8-10.9
			c6.5-6.5,18.1-17.8,25.1-5.6C389.1,355.3,378.2,388.9,368.9,402.1z"/>
		<g>
			<path class="st1" d="M434,361.8c-9.9-1.2-15.1,0.5-23.1,3.4c-0.1,0-0.2,0.1-0.1,0.4l-0.9,8.8c0,0.2,0.2,0.5,0.5,0.4
				c11.7-4.8,20.5-3.1,22.5-2.6c0.2,0,0.5-0.1,0.5-0.4l1-9.6C434.3,362,434.2,361.8,434,361.8z"/>
			<path class="st1" d="M412.5,329.7c3.7-3.6,11.2-9.7,15.3-12.3c4.1-2.6,1.4-5.1-2-9.8c-3.4-4.8-10.1,3.6-17.5,12
				C404.9,323.4,408.8,333.3,412.5,329.7z"/>
			<path class="st1" d="M376.9,282.1c-4.8-3.5-5.5,0.5-5.7,2.7c-0.2,2.4-0.2,2.6-1,9.4c-0.4,3.6-0.1,5.6-0.2,5.6
				c7.2,9.4,9.7,7.1,10.9-4C382.2,284.8,381.7,285.7,376.9,282.1z"/>
			<path class="st1" d="M330.4,307.9c-2.7,2.1-3,2.7-0.7,5.2c2.2,2.5,7.3,9.8,11.8,10.6c4.3,0.6,5.3,0.5,5.3,0.5
				c-3.1-5.8-6.7-11-9.6-13.8C334.4,307.6,333.2,305.8,330.4,307.9z"/>
		</g>
	</g>
	<path id="C_1_" class="st1" d="M459.3,505.1c-10.7,8.7-35.7,26.9-36.9-13.9s15.4-39.7,20.1-38.4c4.7,1.4,10.4,13.3,17.5,13.8
		c7.1,0.5,14.8-7.3,8.1-20.4c-6.7-13-31.9-30.4-51.6-5.8s-18,56.2-13.8,78.7c4.2,22.5,31.5,27.6,46.1,21.1
		c14.5-6.5,31.3-16,30.2-33.3C477.8,489.5,459.3,505.1,459.3,505.1z"/>
	<path id="H_1_" class="st1" d="M526.2,523c0.2,4.3-2,10.1-10.4,8.8c-8.4-1.2-17.1-6.6-18.7-17c-1.6-10.4-13.7-166.6-14-171.9
		c-0.4-5.3-1.2-18.9,5.8-24.1c7.1-5.3,15.8-6.7,17.4,2.9c1.5,9.6,12.2,110.8,12.2,110.8s13.7-23.2,31.9-16.6
		c20,7.2,27.9,16,31.5,64.1c1.9,25.3,3.2,33.3-0.5,38.4c-2.7,3.7-9.4,3.2-17.9,0.9c-12.5-3.1-10.2-24.8-12-47.2
		c-1.9-22.3-6.1-26.4-14-25.1c-7.8,1.4-15.1,7.2-14.3,20.7C524.1,481.3,526.2,523,526.2,523z"/>
	<path id="E" class="st1" d="M679.5,474.2c-2.1-16.3-16.8-0.2-26.1,7.1c0,0-3.1,4.1-12.3,7.1c-8.9,2.9-14.2-8.4-13-12.9
		c1-4.5,26.4-13,38-17.9c11.5-5,14.9-13.2,5.5-36.4c-9.4-23.2-39.1-26.1-57.1-11.5c-18,14.5-19.5,59.1-9.8,84.9
		c9.7,25.9,43.9,21.6,55.2,12.9S681.6,490.5,679.5,474.2z M624.6,449.6c-0.7-29.8,24.1-34.4,28.3-10.3c0.1,0.5-0.1,0.9-0.6,1.1
		c-11.2,6.5-22.7,9.3-26.4,10.2C625.2,450.8,624.6,450.3,624.6,449.6z"/>
	<path id="L_3_" class="st1" d="M721.2,311c0-10.6-7.4-24.3-21-8.9c-6.7,7.7-9.4,8.7-10.2,22.5c-0.7,13.8,1.8,40.6,5.8,80.5
		c7.9,79.8,9.8,92.6,23.9,93.3c14,0.7,18.9,2.1,18.9-9.8C738.5,476.7,721.3,321.5,721.2,311z"/>
	<path id="O" class="st1" d="M831.4,428c-2.7-27.1-14.4-55.1-39.5-52.3c-25.2,2.9-41.1,17.3-37.5,66.5c2.7,38.4,19,48.3,42.2,47
		C821.7,488.1,834.2,456.2,831.4,428z M798.3,463.5c-3.2,0.5-8.2,0.9-13.3-2.5c-4.8-3.2-6.8-13.7-7.3-23.7c-0.4-7.3-0.9-16,0.1-21.4
		c2-11.3,7.2-15.5,12.4-16.3c7.6-1.1,17.1,9.1,19.6,29.3C812.3,449.3,804.6,462.7,798.3,463.5z"/>
	<path id="B" class="st1" d="M926.4,405c-10.2-57-44.9-40.9-53.4-36c-1.4-40.5-2.4-80.6-2.4-85.6c0-10-10.5-21.5-19.3-12.7
		c-7,7.4-9.7,8.4-10.9,22.1c-1.2,13.7-0.7,41.1,1.9,81.1c3.4,52.8,6.4,75.7,11.7,85.8l0,0.1c7.8,15.9,20.2,17.3,34.1,15.1
		C902.2,472.7,938.1,470.1,926.4,405z M892.4,451.1c-3.2,0.5-8.2,0.9-13.2-2.6c-4.8-3.2-6.7-13.8-7.1-23.8c-0.2-7.3-0.6-16,0.4-21.4
		c2.1-11.3,7.4-15.4,12.5-16.1c7.6-1,17,9.2,19.2,29.5C906.5,437,898.6,450.3,892.4,451.1z"/>
</g>
<g class="st3">
	<path class="st1" d="M257.1,642.4l7.2,49.9c0.1,0.6-2.6,2.2-5.9,2.7c-3.6,0.5-7-0.4-9.2-4.7c-0.4-1.2-1-2.4-1.3-3.8
		c-2.5,6.8-7.5,12-15.8,13.2c-13.7,2-20.5-7.3-22.4-20.5l-4.2-29.2c-0.8-5.5,1.6-8,5.9-8.6l1.8-0.3c4.5-0.7,7.6,0.8,8.5,6.5l4,27.9
		c1,6.9,4.5,10.6,10.4,9.8c4.9-0.6,8.2-4,9.5-8.3l-4.7-32.2c-0.8-5.5,1.6-8,5.9-8.6l1.8-0.3C253.1,635.3,256.2,636.7,257.1,642.4z"
		/>
	<path class="st1" d="M275.8,684.5l-10.6-73.2c-0.1-0.6,2.7-2.5,6-2.9c4.8-0.7,10.3,1.4,11.7,11.3l9.1,62.5c0.8,5.6-1.5,8.1-5.9,8.7
		l-1.8,0.3C279.7,691.8,276.6,690.2,275.8,684.5z"/>
	<path class="st1" d="M306.8,670.1l-4.1-28.3l-2.7,0.4c-4,0.6-6.2-1.3-6.8-5l-0.2-1.4c-0.5-3.4,1-6,5-6.5l2.9-0.4l-1.1-7.4
		c-0.8-5.3,1.5-8.1,6-8.8l1.7-0.2c4.5-0.7,7.5,1,8.4,6.7l1.1,7.4l8.6-1.2c3.9-0.6,6.2,1,6.7,4.7l0.2,1.4c0.6,3.9-1.3,6.2-5.1,6.8
		l-8.8,1.3l3.6,24.8c0.9,6.1,3,7.9,6.5,7.4c2.7-0.4,4.9-2.2,6-4.4c0.6-0.1,3.8,1.6,4.4,6.2c0.4,2.5-0.1,4.9-2,7.1
		c-2,2.6-5.5,4.6-10.6,5.3C315.5,687.6,308.6,682.6,306.8,670.1z"/>
	<path class="st1" d="M378.7,626.5c1.1,7.2-3.7,10.2-4,10.2c-1.7-1.5-4-2.5-7-2c-6.7,1-8.7,7.6-7,19.3l2.6,17.8
		c0.8,5.6-1.5,8.1-6,8.8l-1.7,0.2c-4.5,0.7-7.5-1-8.4-6.7l-7.2-49.6c-0.1-0.6,2.4-2.2,5.6-2.6c3.8-0.6,7,0.7,9,5
		c0.7,1.6,1.3,3.4,1.8,5.4c0.7-8,4.5-13.4,11-14.3C373.5,617.1,377.8,620.6,378.7,626.5z"/>
	<path class="st1" d="M417.2,636.3l1.9-0.3c-0.1-0.6-0.3-1.3-0.4-1.9c-1.2-6.9-4.9-10.2-11.4-9.3c-6.5,0.9-9.4,5.2-10.3,10.1
		c-1.4,0.4-11.1,2.7-12.3-5.3c-0.4-2.8,0.4-5.8,2.4-8.2c3.2-4.4,9.9-7.9,19.2-9.2c18.1-2.6,26.5,5.5,28.7,20.8l4.9,33.7
		c0.1,1-2.8,2.6-5.9,3c-3.9,0.6-7-0.8-8.7-4.1c-0.8-1.6-1.4-3.3-1.8-5c-2.4,7.4-8.3,12-16.3,13.2c-10.9,1.6-18.8-3.9-20.2-13.9
		C385.2,647.4,395.3,639.7,417.2,636.3z M420.4,644l-2.4,0.3c-11.6,2-16.6,5.7-15.7,12.1c0.7,4.6,4.1,6.8,8.9,6.1
		c6.5-0.9,10.8-6.4,10-13L420.4,644z"/>
	<path class="st1" d="M465,652.9c-0.6-4.2,2.5-7.5,3.3-7.5c4.8,3.7,11.5,6,18.5,4.9c5.2-0.8,8.4-3.3,7.8-7
		c-0.6-4.2-4.8-4.5-11.7-5.1c-7.4-0.7-19.1-1.8-20.9-14.8c-1.6-10.8,5.6-20,20-22.1c8.6-1.2,14.8,0.2,18.4,3.2
		c2.3,1.5,3.7,3.6,4,6.1c0.7,4.5-3,8.1-3.7,8.2c-4-3.7-10.5-6.4-16.8-5.4c-5.2,0.8-8,3.3-7.5,6.9c0.6,4.2,5.2,4.3,11.8,5
		c8.6,0.7,20,2.3,21.8,14.9c1.7,11.4-6.2,19.8-21.1,22c-7.7,1.1-13.9,0.3-18.1-1.7C467.5,658.7,465.4,656.2,465,652.9z"/>
	<path class="st1" d="M522.8,638.8l-4.1-28.3l-2.7,0.4c-4,0.6-6.2-1.3-6.8-5l-0.2-1.4c-0.5-3.4,1-6,5-6.5l2.8-0.4l-1.1-7.4
		c-0.8-5.3,1.5-8.1,6-8.8l1.7-0.2c4.5-0.7,7.5,1,8.4,6.7l1.1,7.4l8.6-1.2c3.9-0.6,6.2,1,6.7,4.7l0.2,1.4c0.6,3.9-1.3,6.2-5.1,6.8
		l-8.8,1.3l3.6,24.8c0.9,6.1,3,7.9,6.5,7.4c2.7-0.4,4.9-2.2,6-4.4c0.6-0.1,3.8,1.6,4.4,6.2c0.4,2.5-0.1,4.9-2,7.1
		c-2,2.6-5.5,4.6-10.6,5.3C531.5,656.2,524.6,651.3,522.8,638.8z"/>
	<path class="st1" d="M594.7,595.2c1.1,7.2-3.7,10.2-4,10.2c-1.7-1.5-4-2.5-7-2c-6.7,1-8.7,7.6-7,19.3l2.6,17.8
		c0.8,5.6-1.5,8.1-6,8.8l-1.7,0.2c-4.5,0.7-7.5-1-8.4-6.7l-7.2-49.6c-0.1-0.6,2.4-2.2,5.6-2.6c3.8-0.6,7,0.7,9,5
		c0.7,1.6,1.3,3.4,1.8,5.4c0.7-8,4.5-13.4,11-14.3C589.6,585.7,593.8,589.2,594.7,595.2z"/>
	<path class="st1" d="M622.3,581c16.2-2.3,27.5,7.4,30,24.9l0.2,1.1c0.4,3-0.4,4.8-3.6,5.3l-34,4.9c0.2,0.6,0.3,1.4,0.5,2
		c2.2,7.7,8.2,11.2,15.3,10.1c6.9-1,10.4-4.9,12-10.1c1.3-0.3,8.9-0.6,9.8,5.9c0.4,3.1-0.8,6.5-3.9,9.7c-3.3,3.1-8.8,6-16.7,7.1
		c-16.9,2.4-29.7-7.2-32.4-26C596.9,597.3,606.1,583.3,622.3,581z M623.9,592.6c-6.8,1-10.5,7.1-10,15.6l22.9-3.3
		C635.4,596.4,630.9,591.6,623.9,592.6z"/>
	<path class="st1" d="M712.3,591.6l4.2,29c0.8,5.6-1.6,8.1-5.9,8.7l-1.9,0.3c-4.5,0.7-7.5-1-8.4-6.7l-4-27.5
		c-1-6.9-4.6-10.6-10.4-9.8c-5,0.7-8.3,4-9.6,8.3l4.6,31.8c0.8,5.6-1.6,8.1-5.9,8.7l-1.9,0.3c-4.5,0.7-7.5-1-8.4-6.7l-7.2-49.6
		c-0.1-0.6,2.6-2.2,5.9-2.7c4.2-0.6,8.2,1.2,10.3,8.1l0.1,0.7c2.6-7,7.7-12.2,16-13.4C703.4,569.2,710.4,578.5,712.3,591.6z"/>
	<path class="st1" d="M724.1,636.3c-1.1-7.5,4.8-13.9,14.7-17.6c-1.8-0.9-3.3-2.7-3.7-5.2c-0.4-2.8,1.1-5.7,3.5-7.3
		c-10.1-1.2-16.7-7.6-18.1-17.1c-1.8-12.7,7.1-23.2,21-25.2c3.9-0.6,7.7-0.3,11.2,0.8l1.8-5c1.4-4.8,3.7-6.8,6.8-7.2
		c5.7-0.7,9.2,5.6,8.9,6.2l-7.8,10.8c3.6,3.1,6,7.3,6.8,12.4c1.7,11.9-6,21.5-19.3,23.8l-2.1,0.3c-0.4,0.7-0.3,1.6,0.6,2.2
		c1.2,2.3,6.2,2,13.8,3.2c7.6,1.3,15.8,4.5,17.2,13.9c1.6,10.8-7.4,19.8-26.3,22.5C734.9,650.4,725.5,646,724.1,636.3z M754.2,583.9
		c-1.1-7.2-5.3-10.5-11.1-9.7c-5.6,0.8-8.8,5.2-7.8,12.4c1.1,7.4,5.4,10.7,11.1,9.9S755.3,591.3,754.2,583.9z M764.2,629.6
		c-0.5-3.4-4.1-4.9-8.9-5.6c-1.6-0.3-3.3-0.5-5.1-0.6c-7,2.1-11.9,6-11.2,10.5c0.6,4.3,5.3,6.1,13.3,5
		C760.5,637.7,764.9,634.4,764.2,629.6z"/>
	<path class="st1" d="M785.7,600.7l-4.1-28.3l-2.7,0.4c-4,0.6-6.2-1.3-6.8-5l-0.2-1.4c-0.5-3.4,1-6,5-6.5l2.9-0.4l-1.1-7.4
		c-0.8-5.3,1.5-8.1,6-8.8l1.7-0.2c4.5-0.7,7.5,1,8.4,6.7l1.1,7.4l8.5-1.2c3.9-0.6,6.2,1,6.7,4.7l0.2,1.4c0.6,3.9-1.3,6.2-5.1,6.8
		l-8.8,1.3l3.6,24.8c0.9,6.1,3,7.9,6.5,7.4c2.7-0.4,4.9-2.2,6-4.4c0.6-0.1,3.8,1.6,4.4,6.2c0.4,2.5-0.1,4.9-2,7.1
		c-2,2.6-5.5,4.6-10.6,5.3C794.4,618.1,787.5,613.1,785.7,600.7z"/>
	<path class="st1" d="M873.5,568.2l4.2,29c0.8,5.6-1.6,8.1-5.9,8.7l-1.9,0.3c-4.5,0.7-7.5-1-8.4-6.7l-4-27.7
		c-1-6.7-4.6-10.5-10.4-9.7c-5.8,0.8-9.4,5.2-9.1,11.7l4.1,28.4c0.8,5.6-1.5,8.1-5.9,8.7l-1.8,0.3c-4.5,0.7-7.5-1-8.4-6.7
		l-10.6-73.2c-0.1-0.6,2.6-2.4,5.9-2.9c4.9-0.7,10.3,1.3,11.7,11.3l3,20.8c2.2-6.6,6.9-11.7,15-12.8
		C864.8,545.8,871.7,555.3,873.5,568.2z"/>
	<path class="st1" d="M433.6,780L413,732.1c-0.5-1,4.4-5.6,8.7-6.2c3.1-0.4,6.9,0.6,8.5,5.9l11.5,35.1l3.5-32.5
		c0.3-3.8,3.1-5.9,7.4-6.5c4.2-0.6,7.6,0.6,9,4.2l12.2,30l1.1-36.7c0-5.6,3.4-7.6,6.3-8.1c4.9-0.7,10.1,2.5,10,3.4l-5.9,51.9
		c-0.4,3.9-4.3,5.5-7.9,6c-5.6,0.8-8.6,0.2-10.4-4.2l-12-27.2l-4,29.6c-0.4,4.7-3.2,6.2-8.3,6.9C439.2,784.1,435.2,783.7,433.6,780z
		"/>
	<path class="st1" d="M503,688c5.3-0.8,9.5,1.7,10.3,7.6c0.8,5.8-2.3,9.4-7.7,10.2c-5.3,0.8-9.6-1.8-10.4-7.6
		C494.3,692.4,497.6,688.8,503,688z M499.7,722.6c-0.8-5.6,1.6-8.1,6-8.8l1.8-0.3c4.5-0.7,7.5,1,8.4,6.7l6.4,43.8
		c0.8,5.5-1.5,8-5.9,8.6l-1.8,0.3c-4.5,0.7-7.7-1-8.5-6.5L499.7,722.6z"/>
	<path class="st1" d="M587.3,732c2.6,18.2-5.1,32-18.8,34c-8.4,1.2-14.6-2.9-17.9-8.3l3.5,24c0.8,5.6-1.6,8.1-5.9,8.7l-1.7,0.2
		c-4.6,0.7-7.8-0.9-8.6-6.6l-10.4-71.6c-0.1-0.6,2.7-2.2,5.9-2.7c4.2-0.6,8.3,1.3,10.3,7.7c0.1,0.6,0.2,1.3,0.4,2.1
		c1.7-7.4,6.5-13.1,15.1-14.3C573.3,703.3,584.6,713.8,587.3,732z M571.4,734.6c-1.7-11.5-7.6-16.5-14.6-15.5
		c-5.7,0.8-9,4.9-10.4,11.1l1.7,11.5c1.3,8.2,7.2,12.8,13.5,11.9C568.9,752.5,573,745.7,571.4,734.6z"/>
	<path class="st1" d="M616.4,697c16.1-2.3,27.5,7.4,30,24.9l0.2,1.1c0.4,3-0.4,4.8-3.6,5.3l-34,4.9c0.2,0.6,0.3,1.4,0.5,2
		c2.2,7.7,8.2,11.2,15.3,10.1c6.9-1,10.4-4.9,12-10.1c1.3-0.3,8.9-0.6,9.8,5.9c0.4,3.1-0.7,6.5-3.9,9.7c-3.3,3.1-8.8,6-16.7,7.1
		c-16.9,2.4-29.7-7.2-32.4-26C591,713.3,600.1,699.4,616.4,697z M617.9,708.7c-6.8,1-10.5,7.1-10,15.6l22.9-3.3
		C629.4,712.5,624.9,707.7,617.9,708.7z"/>
	<path class="st1" d="M654.6,740.6c-0.6-4.2,2.5-7.5,3.3-7.5c4.8,3.7,11.5,6,18.5,4.9c5.2-0.8,8.4-3.3,7.8-7
		c-0.6-4.2-4.8-4.5-11.7-5.1c-7.4-0.7-19.1-1.8-20.9-14.8c-1.6-10.8,5.6-20,20-22.1c8.5-1.2,14.8,0.2,18.4,3.1
		c2.3,1.5,3.7,3.6,4,6.1c0.7,4.5-3,8.1-3.7,8.2c-4-3.7-10.5-6.4-16.8-5.4c-5.2,0.8-8,3.3-7.5,6.9c0.6,4.2,5.2,4.3,11.8,5
		c8.6,0.7,20,2.3,21.8,14.9c1.7,11.4-6.2,19.8-21.1,22c-7.7,1.1-13.9,0.3-18.1-1.7C657.1,746.4,655.1,743.9,654.6,740.6z"/>
</g>
</svg>
