<?xml version="1.0" encoding="utf-8"?>
<!-- Generator: Adobe Illustrator 24.0.2, SVG Export Plug-In . SVG Version: 6.00 Build 0)  -->
<svg version="1.1" id="Layer_1" xmlns="http://www.w3.org/2000/svg" xmlns:xlink="http://www.w3.org/1999/xlink" x="0px" y="0px"
	 viewBox="0 0 700.2 260.3" style="enable-background:new 0 0 700.2 260.3;" xml:space="preserve">
<style type="text/css">
	.st0{display:none;fill:#63AEAA;}
	.st1{fill:#FFFAFA;}
	.st2{fill:#FAE847;}
</style>
<rect class="st0" width="700.2" height="260.3"/>
<g id="Michelob_1_">
	<path id="M" class="st1" d="M133.5,63.4c-13.6,0.3-24.2,5.3-31.5,12.7c-7.4-7.4-18.1-12.3-31.7-12.4c-27.8-0.3-37.6,18.1-44.1,37.1
		c-6.5,19,3.8,101.7,5.8,114.9c0,0-0.1-1,1.9,9.8c1.8,11,15.8,9.2,22.6,8.7c6.9-0.3,5.8-3.9,4.7-13.2c-1.2-9.3-10.9-67.8-11.2-106.1
		s39.1-29.2,39.5-9.9c0.1,2.4,0.5,4.5,1.2,6.3c2,6.5,7.2,9.3,12.3,8.7c4.4-0.2,8.6-2.8,10.4-8.2c0.8-1.9,1.3-4.2,1.3-6.8
		c0.3-19.3,39.4-28.8,39.6,9.5c0.2,38.4-9,96.9-10.1,106.2c-1,9.4-2,12.9,4.8,13.2c6.8,0.3,20.8,2,22.6-8.9
		c1.7-9.6,1.8-10.2,1.8-10.2c1.8-13.2,11.3-96,4.5-114.9C171.3,81.2,161.3,62.8,133.5,63.4z"/>
	<path id="I_1_" class="st1" d="M237.2,150.2c0,0-9.9,69.3-10.9,74.4c-1.1,5.1-0.1,10.9-11.5,6.5c-11.5-4.4-11-16.3-10.4-21.5
		c0.6-5.2,8.8-63.7,10.6-66.1c1.8-2.4,5.5-7.2,16.8-6.2C239.2,137.4,237.2,150.2,237.2,150.2z"/>
	<g id="I_dot_2_">
		<path class="st2" d="M245.6,51.3c-16.2,12.9-15.7,16.8-15.7,16.8s-23.3-26.6-39.2-5.9c-15.9,20.8,14.1,49.5,24.4,59.6
			c10.3,10.1,16.9,13.5,23.7,9.1c6.9-4.4,9.4-6.1,9.4-6.1c13.6-11.5,26.5-26.8,30.4-48.8S261.8,38.4,245.6,51.3z M232.7,86.5
			c0,0,3.8,2.7,4.5,6.8c0.7,4-0.8,11.7-5.2,1.3C230.5,88.9,232.7,86.5,232.7,86.5z M244.1,112.7c-9.1,9.3-13.2,14.1-22.3,4.4
			s-22-33.2-17.5-42.3c4.6-9.1,14-3.3,19.6,1.7c1.8,1.8,2.1,3.8,2.1,3.8s-4.8,8.1-1.6,19.2c3.2,11.1,10.4,10.2,16.3,3.8
			c5.9-6.5,2.4-17.7-1-21.6c-3.3-4-4.4-5-4.4-5s2-5.1,6-8c5.9-4.3,16.6-11.9,20.7-1.3C266.1,78,253.2,103.4,244.1,112.7z"/>
		<g>
			<path class="st1" d="M300.9,88.7c-7.7-2.2-12.1-1.5-18.8-0.2c-0.1,0-0.2,0.1-0.1,0.3l-1.8,6.9c0,0.2,0.1,0.4,0.3,0.4
				c9.9-2.4,16.7,0.1,18.2,0.7c0.2,0,0.4,0,0.4-0.2l2-7.5C301.2,88.9,301.1,88.7,300.9,88.7z"/>
			<path class="st1" d="M287.8,60.5c3.4-2.4,10.1-6.3,13.7-7.9c3.6-1.6,1.7-3.9-0.4-8.1c-2.1-4.3-8.5,1.6-15.4,7.4
				C282.6,54.5,284.4,62.9,287.8,60.5z"/>
			<path class="st1" d="M265.4,18.2c-3.4-3.4-4.4-0.3-4.9,1.5c-0.5,1.8-0.5,2-2,7.4c-0.7,2.8-0.8,4.4-0.9,4.4
				c4.6,8.4,6.8,6.8,9.2-1.8C269.3,21,268.8,21.6,265.4,18.2z"/>
			<path class="st1" d="M225.3,32.9c-2.4,1.3-2.7,1.8-1.2,4.1s4.6,8.7,8.1,9.9c3.4,1,4.2,1.1,4.2,1.1c-1.7-5-4-9.6-5.9-12.2
				C228.5,33.2,227.7,31.6,225.3,32.9z"/>
		</g>
	</g>
	<path id="C_1_" class="st1" d="M303.2,206c-9.6,5.6-31.8,17-27.6-15.7s17.2-29.7,20.8-28c3.6,1.7,6.6,11.9,12.2,13.1
		c5.6,1.3,12.7-4,9-15.2c-3.7-11.2-21.6-28.2-40.4-11.1c-18.8,17.1-21.3,42.5-20.8,60.9c0.6,18.4,21.7,25.9,34,22.5
		c12.4-3.3,26.9-8.8,28.2-22.7C319.9,195.8,303.2,206,303.2,206z"/>
	<path id="H_1_" class="st1" d="M354.2,228.5c-0.3,3.5-2.8,7.8-9.4,5.7s-12.8-7.4-12.8-15.9c0-8.5,9.9-134.3,10.3-138.6
		s1.4-15.2,7.6-18.4c6.3-3.4,13.4-3.4,13.5,4.4c0,7.8-4.1,89.7-4.1,89.7s13.8-16.8,27.5-9.3c15,8.2,20.2,16.2,17.1,54.9
		c-1.7,20.4-1.6,26.9-5.2,30.5c-2.6,2.6-7.9,1.4-14.3-1.5c-9.6-4-5-21-3.7-39c1.3-18-1.5-21.8-8-21.7c-6.4,0.1-13,3.8-13.9,14.7
		C357.8,195.1,354.2,228.5,354.2,228.5z"/>
	<path id="E" class="st1" d="M482.3,208.8c0.3-13.2-13.3-2.3-21.6,2.4c0,0-3,2.9-10.7,4.1c-7.5,1.2-10.2-8.5-8.8-11.9
		c1.3-3.4,22.7-7.1,32.5-9.5c9.8-2.5,13.5-8.6,8.9-28.3c-4.6-19.7-27.9-25.6-44-16.3s-22.9,44.6-18.4,66.4
		c4.5,21.9,32.3,22.7,42.4,17.2C472.6,227.3,482,222,482.3,208.8z M441.7,182.4c3.1-23.8,23.5-24.4,23.8-4.7c0,0.4-0.2,0.7-0.6,0.8
		c-9.7,3.7-19.2,4.6-22.3,4.8C442.1,183.4,441.7,182.9,441.7,182.4z"/>
	<path id="L_3_" class="st1" d="M535.9,84.1c1.3-8.4-2.9-20.3-15.6-9.7c-6.3,5.3-8.6,5.7-10.9,16.6c-2.3,10.9-3.6,32.6-5.4,64.8
		c-3.6,64.5-3.7,74.9,7.4,77.2c11.1,2.3,14.8,4,16.2-5.5C529,218.1,534.7,92.5,535.9,84.1z"/>
	<path id="O" class="st1" d="M609,191c1.2-21.9-4.6-45.7-24.9-46.5c-20.4-0.9-34.9,8.6-38.1,48.3c-2.6,30.9,9.1,40.8,27.7,42.7
		C593.8,237.6,607.7,213.8,609,191z M578.2,215.1c-2.6,0-6.6-0.3-10.3-3.6c-3.5-3.2-3.7-11.7-2.9-19.8c0.6-5.9,1.3-12.9,2.8-17
		c3-8.7,7.7-11.5,11.9-11.4c6.2,0.1,12.5,9.3,12,25.8C591.2,205.5,583.4,215.2,578.2,215.1z"/>
	<path id="B" class="st1" d="M687.5,184.5c-1-46.6-30.6-38.2-38-35.3c3.9-32.4,8.2-64.4,8.8-68.4c1.3-8-5.6-18.4-13.7-12.5
		c-6.5,5.1-8.8,5.5-11.4,16.2c-2.7,10.7-5.7,32.6-8.6,64.7c-3.8,42.4-4.3,61.1-1.4,69.8l0,0c4.2,13.6,14,16.3,25.3,16.3
		C659.8,235.4,688.6,237.8,687.5,184.5z M654.6,217c-2.6,0-6.6-0.3-10.1-3.7c-3.5-3.2-3.6-11.8-2.7-19.9c0.7-5.9,1.5-12.8,3-16.9
		c3.1-8.7,7.8-11.3,12-11.3c6.2,0.2,12.4,9.4,11.6,25.9C667.7,207.5,659.7,217.1,654.6,217z"/>
</g>
</svg>
