<?xml version="1.0" encoding="utf-8"?>
<!-- Generator: Adobe Illustrator 24.0.2, SVG Export Plug-In . SVG Version: 6.00 Build 0)  -->
<svg version="1.1" id="Layer_1" xmlns="http://www.w3.org/2000/svg" xmlns:xlink="http://www.w3.org/1999/xlink" x="0px" y="0px"
	 viewBox="0 0 400 400" style="enable-background:new 0 0 400 400;" xml:space="preserve">
<style type="text/css">
	.st0{fill:#235B9E;}
	.st1{fill:#FFFFFF;}
	.st2{fill:#2D80A6;}
	.st3{fill:#00ABE3;}
	.st4{fill:#FF312E;}
</style>
<g>
	<path class="st0" d="M180.3,140.2c0,22.1-17.9,40.1-40.1,40.1H60.1C38,180.3,20,162.3,20,140.2V60.1C20,37.9,38,20,60.1,20h80.1
		c22.1,0,40.1,17.9,40.1,40.1V140.2z"/>
	<g>
		<path class="st1" d="M86.8,150.2h20c0,0,0-27.7,0-50.1h14.9l1.8-20h-15.9v-8c0-3.9,2.6-4.8,4.4-4.8c1.8,0,11.2,0,11.2,0V50.1
			l-15.5-0.1c-17.2,0-21.1,12.8-21.1,21v9.1h-9.9v20h10C86.8,122.8,86.8,150.2,86.8,150.2z"/>
	</g>
</g>
<g>
	<path class="st2" d="M379.5,139.5c0,22-17.8,39.8-39.8,39.8H260c-22,0-39.8-17.8-39.8-39.8V59.8c0-22,17.8-39.8,39.8-39.8h79.7
		c22,0,39.8,17.8,39.8,39.8V139.5z"/>
	<g>
		<path class="st1" d="M330.4,49.9h-61.1c-10.6,0-19.2,8.6-19.2,19.2v20.3v40.8c0,10.6,8.6,19.2,19.2,19.2h61.1
			c10.6,0,19.3-8.6,19.3-19.2V89.5V69.1C349.6,58.5,341,49.9,330.4,49.9z M335.9,61.4l2.2,0v2.2v14.7l-16.8,0.1l-0.1-16.9
			L335.9,61.4z M285.6,89.5c3.2-4.4,8.4-7.3,14.2-7.3s11,2.9,14.2,7.3c2.1,2.9,3.3,6.4,3.3,10.2c0,9.7-7.9,17.5-17.5,17.5
			c-9.7,0-17.5-7.9-17.5-17.5C282.3,95.9,283.5,92.3,285.6,89.5z M339.9,130.2c0,5.3-4.3,9.5-9.6,9.5h-61.1c-5.3,0-9.5-4.3-9.5-9.5
			V89.5h14.9c-1.3,3.2-2,6.6-2,10.2c0,15,12.2,27.2,27.2,27.2c15,0,27.2-12.2,27.2-27.2c0-3.6-0.7-7.1-2-10.2h14.9V130.2z"/>
	</g>
</g>
<g>
	<path class="st3" d="M180.1,339.8c0,22.2-18,40.2-40.2,40.2H59.7c-22.2,0-40.2-18-40.2-40.2v-80.3c0-22.2,18-40.2,40.2-40.2H140
		c22.2,0,40.2,18,40.2,40.2V339.8z"/>
	<g>
		<path class="st1" d="M147.2,261c-4,2.3-8.4,4-13.1,4.9c-3.8-3.9-9.1-6.4-15-6.4c-11.4,0-20.6,9.1-20.6,20.3c0,1.6,0.2,3.1,0.5,4.6
			c-17.1-0.8-32.3-8.9-42.5-21.2c-1.8,3-2.8,6.5-2.8,10.2c0,7,3.6,13.2,9.2,16.9c-3.4-0.1-6.6-1-9.3-2.5c0,0.1,0,0.2,0,0.3
			c0,9.8,7.1,18,16.5,19.9c-1.7,0.5-3.5,0.7-5.4,0.7c-1.3,0-2.6-0.1-3.9-0.4c2.6,8.1,10.2,13.9,19.2,14.1
			c-7.1,5.4-15.9,8.7-25.6,8.7c-1.7,0-3.3-0.1-4.9-0.3c9.1,5.8,20,9.1,31.6,9.1c37.9,0,58.6-30.9,58.6-57.7c0-0.9,0-1.8-0.1-2.6
			c4-2.9,7.5-6.4,10.3-10.5c-3.7,1.6-7.7,2.7-11.8,3.2C142.4,269.7,145.7,265.7,147.2,261z"/>
	</g>
</g>
<g>
	<path class="st4" d="M379.6,340.1c0,22-17.9,39.9-39.9,39.9h-79.8c-22,0-39.9-17.9-39.9-39.9v-79.8c0-22,17.9-39.9,39.9-39.9h79.8
		c22,0,39.9,17.9,39.9,39.9V340.1z"/>
	<g>
		<g id="Lozenge_17_">
			<g>
				<path class="st1" d="M348.7,279.4c0,0-1-7.2-4-10.3c-3.8-4.1-8-4.2-10-4.4c-14-1-34.9-1-34.9-1h0c0,0-20.9,0-34.9,1
					c-1.9,0.2-6.2,0.3-10,4.4c-3,3.2-4,10.3-4,10.3s-1,8.4-1,16.8v7.9c0,8.4,1,16.8,1,16.8s1,7.2,4,10.3c3.8,4.1,8.8,4,11,4.4
					c8,0.8,33.9,1,33.9,1s20.9,0,34.9-1.1c1.9-0.2,6.2-0.3,10-4.4c3-3.2,4-10.3,4-10.3s1-8.4,1-16.8v-7.9
					C349.7,287.9,348.7,279.4,348.7,279.4z M289.5,313.7l0-29.2l26.9,14.7L289.5,313.7z"/>
			</g>
		</g>
	</g>
</g>
</svg>
