<?xml version="1.0" encoding="utf-8"?>
<!-- Generator: Adobe Illustrator 24.0.2, SVG Export Plug-In . SVG Version: 6.00 Build 0)  -->
<svg version="1.1" id="Layer_1" xmlns="http://www.w3.org/2000/svg" xmlns:xlink="http://www.w3.org/1999/xlink" x="0px" y="0px"
	 viewBox="0 0 310 55" style="enable-background:new 0 0 310 55;" xml:space="preserve">
<style type="text/css">
	.st0{fill:#FFFAFA;}
</style>
<g>
	<path class="st0" d="M15,49.6L4.7,5.4C4.6,5,6.2,3.2,9,3.2c1.8,0,3.7,0.9,4.3,4.2l7.2,36.3L28.9,13c0.5-2.3,2.2-3.4,4.7-3.4
		c2.6,0,4.1,1.1,4.6,3.4l8.4,30.7L54,7.4c0.5-3.2,2.4-4.2,4.2-4.2c2.8,0,4.3,1.9,4.1,2.3L51.9,49.6c-0.5,2.1-1.9,2.9-5,2.9
		c-3,0-4.4-0.8-4.9-2.9l-8.4-30.4l-8.8,30.4c-0.4,2-1.9,2.9-4.9,2.9C17,52.4,15.5,51.7,15,49.6z"/>
	<path class="st0" d="M82.2,15c10,0,16.1,7,16.1,17.8v0.7c0,1.5-0.6,2.2-2.3,2.2H72.1c0,0.5,0,0.9,0.1,1.3c0.7,6.1,4.9,9.9,10.7,9.9
		c5.5,0,8.3-2.6,10-5.9c0.6-0.1,4.2,0.5,4.2,3.6c0,1.5-1,3.4-3.2,5.1c-2.2,1.7-6.1,3.2-11.1,3.2c-10.6,0-17.7-7.3-17.7-18.7
		C65.1,22.8,72.1,15,82.2,15z M82.2,20.6c-5.4,0-9.3,4.1-10,10.3h19.1C91,24.8,87.8,20.6,82.2,20.6z"/>
	<path class="st0" d="M105.3,48.8V1.4c0-0.3,1.3-0.9,2.7-0.9c2.3,0,4.6,1.3,4.6,6.1v42.2c0,2.5-1.2,3.4-3.1,3.4h-0.8
		C106.6,52.3,105.3,51.4,105.3,48.8z"/>
	<path class="st0" d="M137.2,15c5.2,0,8.9,1.8,11.2,4.1c2,1.9,2.9,4,2.9,5.7c0,3.4-4.6,3.8-4.7,3.4c-1.4-3.9-4-7-9.4-7
		c-6,0-10.3,4.9-10.3,12.7s4.2,12.7,10.3,12.7c5.3,0,7.9-3.1,9.4-7c0.1-0.5,4.7-0.2,4.7,3.4c0,1.4-0.8,3.5-2.7,5.3
		c-2.3,2.7-6.2,4.5-11.5,4.5c-10.3,0-17.4-7.7-17.4-19C119.7,22.7,126.9,15,137.2,15z"/>
	<path class="st0" d="M173.5,15c10.4,0,17.5,7.7,17.5,19c0,11.2-7.2,18.7-17.6,18.7c-10.6,0-17.7-7.6-17.7-18.9
		C155.7,22.7,162.9,15,173.5,15z M173.4,21c-6.2,0-10.5,4.9-10.5,12.9c0,7.9,4.3,12.9,10.5,12.9c6.1,0,10.4-4.9,10.4-12.8
		C183.9,26,179.7,21,173.4,21z"/>
	<path class="st0" d="M250.4,29.7v19.1c0,2.5-1.3,3.4-3.2,3.4h-0.9c-2,0-3.3-0.9-3.3-3.4V30.3c0-5.8-2.3-8.9-7.1-8.9
		c-3.4,0-6.5,2.2-8.1,5.8v21.7c0,2.5-1.3,3.4-3.2,3.4h-0.9c-2,0-3.2-0.9-3.2-3.4V30.2c0-5.8-2.3-8.8-7.1-8.8c-3.5,0-6.6,2.2-8.2,5.7
		v21.7c0,2.5-1.3,3.4-3.2,3.4h-0.8c-2,0-3.3-0.9-3.3-3.4V16.3c0-0.2,1.3-0.8,2.7-0.8c2.2,0,4,1.2,4.3,5.3v0.7
		c2.3-3.8,6-6.4,10.8-6.4c5.5,0,9.1,2.9,10.8,7.3c2.3-4.3,6.1-7.3,11.6-7.3C246.5,15,250.4,20.9,250.4,29.7z"/>
	<path class="st0" d="M274,15c10,0,16.1,7,16.1,17.8v0.7c0,1.5-0.6,2.2-2.3,2.2h-23.9c0,0.5,0,0.9,0.1,1.3c0.7,6.1,5,9.9,10.7,9.9
		c5.5,0,8.3-2.6,10-5.9c0.6-0.1,4.2,0.5,4.2,3.6c0,1.5-1,3.4-3.2,5.1c-2.3,1.7-6.1,3.2-11.1,3.2c-10.6,0-17.7-7.3-17.7-18.7
		C256.8,22.8,263.9,15,274,15z M274,20.6c-5.4,0-9.3,4.1-10,10.3h19.1C282.8,24.8,279.6,20.6,274,20.6z"/>
	<path class="st0" d="M295.8,47.4c0-2.7,1.3-4.2,4-4.2h0.9c2.8,0,4,1.5,4,4.2v0.8c0,2.8-1.3,4.2-4,4.2h-0.9c-2.6,0-4-1.4-4-4.2V47.4
		z"/>
</g>
</svg>
